<?xml version="1.0" standalone="no"?>
<!DOCTYPE svg PUBLIC "-//W3C//DTD SVG 20010904//EN"
 "http://www.w3.org/TR/2001/REC-SVG-20010904/DTD/svg10.dtd">
<svg version="1.0" xmlns="http://www.w3.org/2000/svg"
 width="300.000000pt" height="329.000000pt" viewBox="0 0 300.000000 329.000000"
 preserveAspectRatio="xMidYMid meet">
<metadata>
Created by potrace 1.10, written by Peter Selinger 2001-2011
</metadata>
<g transform="translate(0.000000,329.000000) scale(0.100000,-0.100000)"
fill="#000000" stroke="none">
<path d="M1370 2950 c-176 -37 -278 -85 -376 -177 -29 -26 -59 -61 -68 -78
-32 -59 -88 -129 -120 -151 -42 -29 -87 -98 -86 -132 1 -15 3 -81 4 -148 3
-88 8 -128 19 -145 9 -13 20 -50 26 -81 6 -31 19 -75 31 -97 17 -33 20 -59 20
-153 0 -62 5 -120 10 -128 7 -12 9 -9 8 10 -1 14 -1 50 1 80 2 55 2 55 17 28
8 -16 19 -28 24 -28 6 0 8 -20 4 -49 -4 -35 -1 -58 11 -82 l16 -34 -23 28
c-28 31 -38 34 -38 9 0 -22 19 -42 39 -42 26 -1 72 -122 51 -135 -10 -6 -50
15 -50 28 0 5 -6 15 -14 23 -8 7 -12 23 -9 34 3 12 -1 26 -10 33 -8 7 -17 21
-20 32 -3 12 -5 5 -6 -15 -1 -57 38 -122 87 -145 35 -16 44 -27 53 -60 6 -22
26 -89 44 -150 40 -131 48 -172 35 -180 -31 -19 8 -182 64 -269 47 -73 178
-200 233 -227 26 -13 71 -22 125 -25 71 -5 90 -3 132 15 75 33 163 121 239
239 54 84 70 139 62 223 -6 76 -6 77 31 134 37 59 94 200 94 235 0 10 11 31
24 47 44 53 48 74 61 267 10 140 19 208 34 254 12 35 21 82 21 105 0 28 7 48
21 63 29 31 29 128 1 199 -10 28 -20 64 -20 81 -2 101 -71 255 -142 319 -24
22 -73 68 -108 103 -34 34 -65 62 -68 62 -3 0 -21 12 -39 26 -36 27 -60 35
-180 60 -89 18 -159 17 -265 -6z m192 -22 c15 1 28 -1 28 -6 0 -4 16 -6 35 -4
23 3 45 -3 69 -17 19 -12 41 -21 48 -19 7 1 24 -4 38 -11 34 -18 180 -163 174
-172 -2 -4 1 -11 7 -15 8 -5 9 -3 4 7 -5 8 18 -13 51 -46 32 -33 59 -69 59
-80 0 -11 7 -20 15 -20 10 0 15 -11 16 -35 1 -69 4 -80 19 -80 18 0 20 -16 3
-23 -8 -3 -5 -6 6 -6 12 -1 16 -6 12 -16 -6 -17 11 -122 25 -147 17 -33 13
-46 -28 -93 -16 -17 -17 -28 -1 -19 8 5 9 2 3 -12 -4 -10 -12 -48 -17 -84 -10
-70 -22 -92 -44 -83 -18 7 -18 -35 -3 -156 10 -75 9 -101 -10 -206 -13 -77
-28 -129 -40 -146 -11 -15 -30 -58 -42 -95 -36 -118 -145 -324 -220 -419 -38
-48 -67 -90 -64 -93 3 -3 11 2 18 12 7 10 17 17 22 16 25 -5 35 2 35 25 0 14
4 25 8 25 5 0 19 20 32 45 26 51 44 70 60 60 15 -9 12 -81 -5 -95 -8 -7 -17
-27 -21 -45 -11 -61 -172 -283 -195 -269 -4 2 -11 0 -14 -6 -8 -13 -107 -62
-112 -56 -3 2 -18 0 -34 -4 -17 -5 -31 -5 -34 1 -4 5 -21 9 -38 9 -52 0 -116
43 -225 152 -41 41 -68 85 -128 211 -15 30 -19 103 -8 132 6 14 8 14 25 -1 22
-20 24 -13 5 24 -18 37 -72 199 -81 242 -3 19 -8 50 -11 69 -2 18 -13 41 -23
50 -11 9 -24 39 -30 66 -6 28 -18 75 -26 105 -16 59 -20 170 -6 185 25 28 33
215 9 215 -5 0 -9 -10 -8 -22 4 -45 -1 -52 -13 -18 -7 21 -20 36 -32 38 -19 4
-19 3 3 -18 12 -11 20 -26 16 -31 -3 -5 0 -17 7 -25 10 -13 10 -17 0 -24 -10
-6 -10 -13 4 -34 18 -27 17 -30 -10 -20 -22 9 -55 86 -48 112 2 11 0 23 -6 26
-6 4 -11 0 -11 -11 0 -15 -2 -16 -10 -3 -12 18 -13 30 -2 29 26 -4 32 2 22 22
-7 12 -18 18 -26 15 -8 -3 -14 0 -15 7 0 7 -2 24 -4 40 -2 15 1 27 8 27 6 0
-1 12 -16 28 -26 27 -26 29 -25 160 2 88 6 136 14 140 6 4 17 18 24 31 12 24
51 69 133 155 26 27 47 56 47 64 0 41 151 162 222 177 15 4 28 10 28 13 0 4
12 7 28 8 42 1 114 14 134 25 10 6 22 8 27 5 5 -3 28 0 52 8 24 7 48 10 54 7
5 -2 22 -4 37 -3z m609 -821 c-8 -8 -11 -2 -11 19 0 40 14 54 18 19 2 -15 -1
-32 -7 -38z"/>
<path d="M1024 2645 c-25 -19 -14 -19 22 0 16 8 22 15 13 15 -8 0 -24 -7 -35
-15z"/>
<path d="M1391 2651 c-12 -8 -9 -11 11 -16 15 -4 31 -4 36 -1 5 3 31 -6 58
-20 26 -14 42 -19 35 -11 -27 33 -117 63 -140 48z"/>
<path d="M919 2588 c-5 -13 -7 -79 -2 -74 8 7 14 76 8 76 -3 0 -5 -1 -6 -2z"/>
<path d="M864 2430 c-12 -4 -24 -16 -28 -26 -5 -14 -4 -15 9 -4 12 10 15 9 16
-6 0 -14 2 -15 6 -4 3 8 12 23 21 33 16 18 9 21 -24 7z"/>
<path d="M1003 2380 c-13 -16 -26 -36 -29 -46 -4 -11 8 1 25 24 36 49 39 65 4
22z"/>
<path d="M1002 2310 c-13 -16 -19 -30 -14 -30 4 0 16 14 25 30 10 17 16 30 14
30 -2 0 -13 -13 -25 -30z"/>
<path d="M1065 2290 c-10 -11 -13 -20 -7 -20 6 0 16 9 22 20 6 11 9 20 7 20
-2 0 -12 -9 -22 -20z"/>
<path d="M1340 2204 c-39 -20 -42 -23 -19 -23 14 -1 34 5 44 13 11 8 25 12 32
9 7 -3 13 -1 13 5 0 20 -26 18 -70 -4z"/>
<path d="M1739 2210 c13 -11 29 -20 37 -20 33 0 0 -81 -44 -104 -16 -9 -21
-15 -11 -16 20 0 64 48 74 79 l8 25 18 -23 c21 -26 82 -40 94 -21 5 9 1 10
-14 5 -21 -6 -58 11 -89 42 -11 11 -11 13 3 13 9 0 13 4 10 10 -3 5 -18 7 -33
4 -19 -4 -33 0 -41 10 -8 9 -19 16 -25 16 -6 -1 0 -10 13 -20z"/>
<path d="M1197 2149 c-14 -17 -31 -28 -37 -24 -5 3 -10 0 -10 -7 0 -8 -14 -22
-32 -32 -28 -17 -31 -17 -25 -3 7 18 -1 21 -27 11 -13 -5 -12 -9 9 -26 22 -17
27 -18 52 -4 15 7 37 23 47 35 10 11 23 18 28 15 4 -3 7 -2 6 3 -1 4 4 19 11
31 19 35 8 35 -22 1z"/>
<path d="M976 2058 c-26 -34 -27 -44 -2 -35 18 7 51 67 37 67 -5 0 -21 -14
-35 -32z"/>
<path d="M1850 2018 c0 -4 -7 -5 -15 -1 -9 3 -35 1 -58 -5 -23 -6 -60 -14 -81
-17 -26 -4 -35 -9 -27 -15 9 -5 10 -10 2 -14 -6 -4 -11 -12 -11 -18 0 -7 5 -7
14 1 11 9 15 9 18 0 3 -8 15 -8 48 2 25 7 49 16 55 21 5 4 20 8 34 8 33 0 112
30 106 41 -7 10 -85 8 -85 -3z"/>
<path d="M1024 2006 c-26 -12 -44 -33 -44 -52 0 -6 44 19 52 30 4 6 12 5 20
-2 17 -13 65 -21 178 -28 l85 -5 -28 26 c-42 40 -102 45 -64 6 8 -9 1 -8 -20
3 -38 19 -76 21 -106 4 -19 -10 -20 -9 -10 4 25 29 -10 37 -63 14z"/>
<path d="M1310 2007 c0 -8 6 -20 14 -26 12 -10 13 -8 9 9 -7 25 -23 37 -23 17z"/>
<path d="M1351 1985 c-1 -20 16 -36 32 -29 9 3 14 10 11 16 -3 5 -12 7 -19 4
-8 -3 -16 0 -19 7 -2 7 -5 8 -5 2z"/>
<path d="M1891 1917 c14 -6 33 -18 42 -25 9 -8 22 -12 29 -10 14 5 -32 32 -72
42 l-25 6 26 -13z"/>
<path d="M1104 1909 c-31 -9 -61 -35 -52 -44 2 -3 15 3 28 13 14 9 43 22 65
29 29 8 33 11 15 11 -14 0 -39 -4 -56 -9z"/>
<path d="M1225 1911 c17 -4 45 -15 63 -25 17 -9 32 -12 32 -7 0 16 -33 30 -81
35 -34 4 -37 4 -14 -3z"/>
<path d="M1730 1913 c-21 -8 -70 -55 -70 -67 0 -5 12 2 28 16 15 14 38 32 52
41 24 17 20 21 -10 10z"/>
<path d="M1754 1881 c-42 -19 -78 -57 -68 -73 3 -4 17 -7 32 -7 17 1 21 3 10
6 -23 6 -23 26 1 47 18 17 20 16 26 -3 16 -51 88 -48 101 4 3 14 8 25 11 25 7
0 77 -53 85 -65 4 -5 10 -6 14 -2 11 11 -36 57 -73 73 -44 19 -90 17 -139 -5z
m76 -13 c0 -7 -14 -14 -30 -15 -18 -1 -30 3 -30 10 0 7 14 14 30 15 19 1 30
-2 30 -10z"/>
<path d="M1124 1869 c-44 -21 -81 -55 -72 -65 4 -3 28 11 55 32 36 28 49 33
51 21 3 -13 6 -13 32 0 30 14 50 11 50 -8 0 -6 -4 -8 -9 -4 -5 3 -21 0 -35 -6
-20 -10 -23 -15 -15 -26 19 -22 57 -15 76 15 9 15 18 29 20 31 4 6 43 -31 43
-41 0 -4 -9 -8 -19 -8 -11 0 -23 -4 -26 -10 -3 -5 9 -9 30 -8 74 3 26 68 -66
87 -66 14 -67 14 -115 -10z"/>
<path d="M1086 1803 c-8 -21 -7 -25 4 -18 5 3 26 -1 46 -10 20 -8 40 -12 46
-9 5 3 15 1 22 -5 15 -13 42 -10 71 7 17 10 14 11 -23 7 -31 -4 -59 1 -102 18
-49 20 -60 22 -64 10z"/>
<path d="M1902 1813 c-6 -3 -10 -9 -7 -14 4 -5 -1 -6 -10 -3 -8 4 -21 2 -28
-3 -6 -6 -36 -9 -65 -8 -54 1 -60 -12 -7 -16 63 -5 104 2 126 19 22 18 17 34
-9 25z"/>
<path d="M1370 1445 c0 -8 9 -15 20 -15 11 0 20 -4 20 -10 0 -13 27 -13 35 0
3 5 -8 16 -24 25 -38 19 -51 19 -51 0z"/>
<path d="M1662 1430 c-16 -21 -18 -28 -7 -24 16 7 40 43 33 50 -3 2 -14 -10
-26 -26z"/>
<path d="M1552 1413 c-20 -20 -28 -29 -16 -20 11 10 29 17 38 17 10 0 29 9 43
20 l26 20 -27 0 c-17 0 -40 -13 -64 -37z"/>
<path d="M1584 1346 c-3 -9 -14 -13 -30 -10 -21 4 -24 1 -24 -25 0 -22 4 -29
14 -25 8 3 17 1 21 -5 8 -15 62 -14 71 1 5 7 2 8 -7 3 -11 -6 -12 -5 -1 6 17
18 15 40 -3 33 -9 -4 -15 0 -15 9 0 22 -19 31 -26 13z"/>
<path d="M1446 1333 c-5 -11 -10 -13 -17 -6 -8 8 -19 6 -39 -5 -26 -15 -27
-17 -13 -39 9 -13 23 -23 32 -23 22 0 41 19 35 35 -3 7 -1 16 5 20 10 6 16 -8
12 -29 -3 -12 20 -26 43 -26 15 0 16 3 7 14 -7 8 -11 20 -10 28 4 36 -2 48
-25 48 -13 0 -27 -8 -30 -17z"/>
<path d="M1709 1288 c4 -12 14 -24 20 -26 8 -3 7 5 -4 22 -21 32 -27 33 -16 4z"/>
<path d="M1663 1284 c-19 -20 -16 -34 7 -34 13 0 20 7 20 19 0 26 -12 32 -27
15z"/>
<path d="M1276 1273 c-4 -13 -11 -23 -16 -23 -5 0 -21 -5 -37 -11 -26 -10 -26
-12 -8 -19 12 -4 25 -2 33 6 7 8 20 17 29 22 8 5 13 18 11 28 -4 17 -5 17 -12
-3z"/>
<path d="M1345 1273 c-4 -13 -11 -20 -16 -17 -5 3 -9 -1 -10 -8 0 -7 -4 -4 -9
7 -8 18 -10 14 -10 -12 0 -13 34 -9 48 4 8 7 11 21 9 31 -4 14 -6 14 -12 -5z"/>
<path d="M1757 1263 c-6 -33 0 -44 13 -23 7 11 10 12 10 2 0 -16 18 -35 47
-51 21 -11 22 -10 12 19 -6 16 -17 30 -25 30 -8 0 -20 11 -26 25 -15 32 -24
32 -31 -2z"/>
<path d="M1210 1258 c-35 -18 -35 -18 -5 -12 30 6 53 20 44 27 -2 2 -20 -5
-39 -15z"/>
<path d="M1177 1223 c-4 -3 -7 -15 -7 -26 0 -16 3 -17 14 -8 11 9 15 9 18 -1
3 -8 6 -9 11 -1 8 12 -26 46 -36 36z"/>
<path d="M1348 1197 c-52 -12 -50 -31 2 -23 25 4 40 2 40 -4 0 -5 8 -10 18
-10 15 1 15 2 1 13 -9 7 -18 17 -20 23 -3 7 -16 7 -41 1z"/>
<path d="M1235 1188 c-18 -11 -17 -13 15 -19 19 -4 39 -4 44 1 19 19 -31 34
-59 18z"/>
<path d="M1661 1186 c8 -8 98 -10 105 -3 4 4 -19 7 -51 7 -32 0 -56 -2 -54 -4z"/>
<path d="M1418 1025 c-3 -4 1 -15 9 -25 13 -15 21 -16 42 -9 19 8 28 7 36 -3
10 -13 14 -14 50 -18 32 -4 45 -1 45 9 0 5 -9 7 -20 4 -11 -3 -20 0 -20 6 0 6
5 12 10 12 6 1 15 3 20 4 6 1 19 3 31 4 11 0 17 6 14 11 -4 6 -10 8 -15 5 -12
-8 -141 -8 -170 0 -14 3 -28 3 -32 0z"/>
<path d="M1142 970 c17 -27 35 -50 41 -50 5 0 7 -7 4 -14 -4 -9 -1 -13 6 -10
16 6 20 -58 4 -68 -8 -5 -7 -8 6 -8 10 0 17 8 17 20 0 11 7 20 15 20 8 0 15
-7 15 -15 0 -8 5 -15 10 -15 6 0 10 -7 10 -16 0 -10 6 -14 15 -10 11 4 14 -2
11 -24 -2 -16 0 -27 5 -25 4 3 18 -13 30 -35 13 -22 29 -40 36 -40 7 0 18 -9
25 -20 7 -11 23 -20 35 -20 13 0 23 -5 23 -11 0 -8 16 -9 53 -5 28 4 63 8 77
9 43 5 84 19 104 36 23 21 48 69 43 84 -2 7 -9 -4 -16 -24 -6 -20 -20 -44 -31
-54 -19 -17 -20 -17 -26 0 -7 17 -8 17 -21 0 -7 -10 -16 -16 -19 -12 -4 3 -15
2 -25 -3 -11 -7 -20 -7 -24 0 -3 5 -13 6 -22 3 -12 -5 -14 -3 -8 7 5 9 4 11
-4 6 -9 -6 -9 -11 -1 -21 16 -19 -24 -26 -50 -8 -11 8 -27 12 -35 9 -19 -7
-63 54 -67 94 -2 19 -9 35 -18 37 -13 4 -13 3 -1 -5 12 -9 12 -12 0 -25 -13
-12 -17 -11 -33 11 -11 14 -15 22 -9 19 6 -4 14 0 17 9 8 22 8 26 -3 20 -16
-10 -135 101 -179 166 -37 57 -46 46 -10 -12z"/>
<path d="M1677 749 c-10 -11 -17 -32 -15 -46 3 -24 5 -21 24 20 23 50 19 60
-9 26z"/>
<path d="M1431 691 c-10 -6 -10 -10 -1 -16 13 -8 24 -1 19 14 -3 6 -10 7 -18
2z"/>
<path d="M954 953 c-118 -138 -178 -194 -244 -227 -79 -40 -244 -93 -405 -131
-104 -24 -231 -56 -287 -72 -10 -3 -18 -14 -18 -25 0 -14 5 -18 18 -14 17 6
254 64 372 92 130 31 287 86 350 124 36 21 90 64 120 94 30 31 59 56 65 56 6
0 11 -39 13 -98 1 -53 11 -142 22 -197 10 -55 22 -116 25 -135 3 -19 10 -48
15 -65 8 -27 34 -153 61 -297 7 -41 15 -58 26 -58 22 0 11 70 -72 465 -46 221
-53 315 -31 425 10 46 22 92 28 103 22 41 -3 24 -58 -40z"/>
<path d="M1936 975 c4 -11 16 -54 27 -95 17 -66 19 -98 14 -270 -3 -107 -12
-260 -21 -340 -28 -279 -28 -270 -6 -270 14 0 20 7 21 23 0 24 25 282 32 337
3 19 8 125 12 235 8 222 16 252 53 193 20 -32 100 -98 119 -98 4 0 24 -9 44
-19 53 -29 196 -77 359 -122 80 -22 197 -58 261 -80 125 -42 149 -46 149 -26
0 21 -110 59 -465 162 -88 25 -209 67 -269 92 -105 45 -111 50 -191 137 -45
50 -97 107 -115 126 -20 22 -29 28 -24 15z"/>
<path d="M1251 461 c-70 -47 -181 -134 -176 -139 2 -3 23 8 45 24 22 16 51 34
63 41 12 7 30 22 39 33 17 21 17 21 50 -24 17 -25 51 -82 74 -126 41 -77 42
-82 30 -118 -7 -20 -16 -55 -20 -77 -4 -22 -9 -48 -12 -57 -4 -13 0 -18 15
-18 26 0 40 47 48 156 6 88 5 90 -80 227 -16 26 -27 51 -23 54 4 4 51 8 104
10 53 1 129 5 168 8 56 5 73 4 83 -9 11 -13 9 -20 -9 -46 -12 -16 -26 -30 -31
-30 -6 0 -8 -4 -4 -9 3 -5 -5 -17 -17 -25 -12 -9 -19 -16 -14 -16 5 0 1 -9 -8
-19 -9 -10 -21 -32 -25 -47 -5 -22 -14 -30 -34 -32 -33 -4 -36 -22 -3 -22 25
0 39 -19 41 -57 0 -12 4 -25 8 -29 12 -12 8 -26 -5 -18 -7 4 -5 -2 5 -13 10
-11 19 -34 20 -52 1 -22 7 -31 20 -31 9 0 17 4 17 9 0 29 -31 165 -41 177 -15
19 -5 43 49 116 26 34 55 75 65 91 20 30 29 33 49 14 19 -19 97 -69 132 -85
55 -24 38 -3 -35 45 -41 27 -93 63 -117 82 l-42 34 -196 1 c-192 1 -198 0
-233 -23z"/>
</g>
</svg>
